<?xml version="1.0" standalone="no"?>
<!DOCTYPE svg PUBLIC "-//W3C//DTD SVG 20010904//EN"
 "http://www.w3.org/TR/2001/REC-SVG-20010904/DTD/svg10.dtd">
<svg version="1.0" xmlns="http://www.w3.org/2000/svg"
 width="840.000000pt" height="859.000000pt" viewBox="0 0 840.000000 859.000000"
 preserveAspectRatio="xMidYMid meet">

<g transform="translate(0.000000,859.000000) scale(0.100000,-0.100000)"
fill="#000000" stroke="none">
<path d="M1365 7216 c-22 -13 -44 -33 -50 -45 -5 -11 -13 -21 -17 -21 -5 0 -8
-9 -8 -20 0 -11 -3 -20 -8 -20 -4 0 -13 -15 -21 -32 -36 -83 -86 -183 -93
-186 -4 -2 -8 -12 -8 -22 0 -10 -4 -22 -10 -25 -5 -3 -10 -15 -10 -26 0 -10
-4 -19 -10 -19 -5 0 -10 -8 -10 -17 0 -10 -11 -38 -25 -62 -14 -23 -25 -49
-25 -57 0 -8 -4 -14 -10 -14 -5 0 -10 -9 -10 -20 0 -11 -4 -20 -10 -20 -5 0
-10 -9 -10 -20 0 -11 -4 -20 -10 -20 -5 0 -10 -5 -10 -10 0 -6 -20 -54 -45
-107 -25 -52 -45 -99 -45 -104 0 -5 -4 -9 -10 -9 -5 0 -10 -9 -10 -20 0 -11
-4 -20 -10 -20 -5 0 -10 -6 -10 -13 0 -7 -11 -37 -25 -65 -14 -29 -25 -56 -25
-62 0 -5 -4 -10 -10 -10 -5 0 -10 -9 -10 -20 0 -11 -4 -20 -10 -20 -5 0 -10
-9 -10 -19 0 -11 -4 -23 -10 -26 -5 -3 -10 -15 -10 -26 0 -10 -4 -19 -10 -19
-5 0 -10 -4 -10 -10 0 -5 -32 -76 -71 -157 -122 -254 -129 -270 -129 -282 0
-6 -4 -11 -10 -11 -5 0 -10 -9 -10 -20 0 -11 -4 -20 -10 -20 -5 0 -10 -9 -10
-19 0 -11 -3 -21 -7 -23 -11 -4 -43 -75 -43 -93 0 -8 -4 -15 -10 -15 -5 0 -10
-5 -10 -12 0 -7 -24 -62 -54 -123 -29 -60 -59 -125 -67 -142 -8 -18 -17 -33
-21 -33 -5 0 -8 -9 -8 -20 0 -11 -4 -20 -10 -20 -5 0 -10 -6 -10 -14 0 -8 -9
-31 -20 -53 -39 -76 -70 -147 -70 -159 0 -7 -4 -14 -8 -16 -4 -1 -19 -28 -34
-58 -14 -30 -40 -84 -57 -120 -18 -37 -31 -81 -31 -102 0 -55 63 -158 97 -158
7 0 13 -4 13 -10 0 -5 9 -10 20 -10 11 0 20 -4 20 -10 0 -5 11 -10 25 -10 14
0 25 -3 25 -8 0 -4 15 -13 33 -21 17 -8 95 -44 172 -81 77 -37 155 -73 173
-81 17 -8 32 -17 32 -21 0 -5 11 -8 24 -8 14 0 28 -4 31 -10 10 -17 89 -11
131 9 21 11 47 30 58 42 20 24 106 201 106 219 0 5 5 10 10 10 6 0 10 9 10 20
0 11 5 20 10 20 6 0 10 9 10 20 0 11 5 20 10 20 6 0 10 8 10 18 0 10 7 27 15
38 8 10 15 27 15 37 0 9 5 17 10 17 6 0 10 9 10 20 0 11 5 20 10 20 6 0 10 9
10 20 0 11 5 20 10 20 6 0 10 11 10 24 0 13 3 26 8 28 7 3 56 102 93 186 8 17
17 32 21 32 5 0 8 6 8 13 0 7 11 37 25 65 14 29 25 56 25 62 0 5 5 10 10 10 6
0 10 7 10 15 0 8 9 30 20 50 11 20 20 42 20 50 0 8 3 15 8 15 4 0 13 15 21 33
20 45 95 205 147 313 24 50 44 96 44 103 0 6 5 11 10 11 6 0 10 9 10 20 0 11
5 20 10 20 6 0 10 6 10 13 0 6 20 53 44 102 91 187 156 326 156 335 0 6 5 10
10 10 6 0 10 9 10 20 0 11 5 20 10 20 6 0 10 11 10 25 0 14 5 25 10 25 6 0 10
9 10 20 0 11 5 20 10 20 6 0 10 6 10 14 0 7 11 34 25 60 14 26 25 54 25 62 0
7 5 14 10 14 6 0 10 9 10 20 0 11 5 20 10 20 6 0 10 4 10 10 0 5 25 61 55 122
30 62 55 119 55 126 0 6 4 12 8 12 4 0 13 20 21 44 9 33 10 50 2 64 -6 12 -11
28 -11 36 0 16 -19 43 -53 76 -21 21 -135 80 -153 80 -8 0 -14 5 -14 10 0 6
-9 10 -20 10 -11 0 -20 5 -20 10 0 6 -8 10 -18 10 -10 0 -27 7 -38 15 -10 8
-27 15 -36 15 -10 0 -18 5 -18 10 0 6 -9 10 -20 10 -11 0 -20 5 -20 10 0 6 -9
10 -19 10 -11 0 -21 3 -23 8 -1 4 -37 22 -78 41 -41 18 -88 40 -104 47 -44 21
-115 16 -161 -10z"/>
<path d="M6910 7230 c-27 -17 -170 -80 -180 -80 -6 0 -10 -4 -10 -10 0 -5 -9
-10 -20 -10 -11 0 -20 -4 -20 -10 0 -5 -9 -10 -20 -10 -11 0 -20 -4 -20 -10 0
-5 -7 -10 -15 -10 -18 0 -89 -32 -93 -42 -2 -5 -12 -8 -23 -8 -10 0 -19 -4
-19 -10 0 -5 -6 -10 -14 -10 -17 0 -144 -66 -168 -88 -10 -8 -18 -21 -18 -29
0 -7 -4 -13 -10 -13 -5 0 -10 -9 -10 -19 0 -11 -4 -23 -10 -26 -5 -3 -10 -19
-10 -35 0 -16 5 -32 10 -35 6 -3 10 -13 10 -22 0 -13 63 -154 101 -225 5 -10
9 -25 9 -33 0 -8 3 -15 8 -15 4 0 13 -15 21 -32 8 -18 34 -73 58 -123 23 -49
43 -95 43 -102 0 -7 5 -13 10 -13 6 0 10 -9 10 -20 0 -11 5 -20 10 -20 6 0 10
-9 10 -20 0 -11 5 -20 10 -20 6 0 10 -5 10 -10 0 -6 11 -33 25 -62 14 -28 25
-58 25 -65 0 -7 5 -13 10 -13 6 0 10 -9 10 -20 0 -11 5 -20 10 -20 6 0 10 -4
10 -10 0 -5 20 -51 45 -103 25 -52 45 -100 45 -106 0 -6 5 -11 10 -11 6 0 10
-9 10 -20 0 -11 5 -20 10 -20 6 0 10 -6 10 -12 0 -11 40 -100 81 -180 5 -10 9
-25 9 -33 0 -8 5 -15 10 -15 6 0 10 -9 10 -19 0 -11 3 -21 8 -23 9 -3 82 -154
82 -169 0 -5 5 -9 10 -9 6 0 10 -6 10 -14 0 -7 14 -42 31 -77 70 -145 79 -165
79 -176 0 -7 5 -13 10 -13 6 0 10 -9 10 -20 0 -11 5 -20 10 -20 6 0 10 -5 10
-11 0 -6 25 -61 55 -122 30 -60 55 -116 55 -124 0 -7 5 -13 10 -13 6 0 10 -9
10 -20 0 -11 5 -20 10 -20 6 0 10 -6 10 -14 0 -7 11 -34 25 -60 14 -26 25 -54
25 -62 0 -7 5 -14 10 -14 6 0 10 -9 10 -20 0 -11 5 -20 10 -20 6 0 10 -5 10
-11 0 -6 17 -48 39 -93 21 -44 46 -98 55 -118 22 -47 63 -88 87 -88 11 0 19
-4 19 -10 0 -5 25 -10 55 -10 30 0 55 5 55 10 0 6 6 10 14 10 7 0 47 15 87 33
41 19 89 40 107 48 17 8 32 17 32 21 0 5 9 8 20 8 11 0 20 5 20 10 0 6 6 10
14 10 13 0 34 9 159 71 22 10 45 19 53 19 8 0 14 5 14 10 0 6 7 10 15 10 30 0
115 82 115 111 0 10 5 19 10 19 6 0 10 19 10 42 0 29 -13 70 -44 133 -23 49
-49 105 -57 123 -8 17 -17 32 -21 32 -5 0 -8 9 -8 20 0 11 -4 20 -10 20 -5 0
-10 6 -10 13 0 10 -19 55 -61 139 -5 10 -9 25 -9 33 0 8 -4 15 -10 15 -5 0
-10 9 -10 20 0 11 -4 20 -10 20 -5 0 -10 9 -10 20 0 11 -4 20 -10 20 -5 0 -10
4 -10 10 0 5 -20 51 -45 102 -25 51 -45 98 -45 105 0 7 -4 13 -10 13 -5 0 -10
9 -10 20 0 11 -4 20 -10 20 -5 0 -10 9 -10 20 0 11 -4 20 -10 20 -5 0 -10 6
-10 14 0 7 -11 34 -25 60 -14 26 -25 54 -25 62 0 7 -4 14 -10 14 -5 0 -10 9
-10 20 0 11 -4 20 -10 20 -5 0 -10 5 -10 11 0 5 -20 53 -45 105 -25 51 -45 98
-45 104 0 5 -4 10 -10 10 -5 0 -10 9 -10 20 0 11 -4 20 -10 20 -5 0 -10 6 -10
13 0 7 -11 37 -25 65 -14 29 -25 56 -25 62 0 5 -4 10 -10 10 -5 0 -10 7 -10
15 0 8 -9 30 -20 50 -11 20 -20 42 -20 50 0 8 -3 15 -8 15 -4 0 -13 15 -21 33
-17 39 -111 237 -157 331 -19 38 -34 75 -34 83 0 7 -4 13 -10 13 -5 0 -10 9
-10 20 0 11 -4 20 -10 20 -5 0 -10 5 -10 11 0 7 -24 62 -54 123 -95 196 -146
307 -146 316 0 6 -4 10 -10 10 -5 0 -10 9 -10 20 0 11 -4 20 -10 20 -5 0 -10
5 -10 11 0 15 -22 35 -64 58 -38 22 -118 28 -146 11z"/>
<path d="M4315 6641 c-3 -6 -39 -11 -81 -11 -43 0 -74 -4 -74 -10 0 -5 -18
-10 -40 -10 -21 0 -49 -4 -62 -9 -13 -5 -48 -14 -78 -21 -68 -16 -139 -38
-162 -50 -10 -6 -25 -10 -33 -10 -8 0 -15 -4 -15 -10 0 -5 -11 -10 -25 -10
-14 0 -25 -4 -25 -10 0 -5 -9 -10 -20 -10 -11 0 -20 -4 -20 -10 0 -5 -8 -10
-19 -10 -10 0 -23 -6 -29 -13 -6 -7 -27 -19 -47 -27 -19 -7 -35 -17 -35 -22 0
-4 -282 -8 -626 -8 -660 0 -654 0 -654 -43 0 -9 -3 -17 -7 -19 -11 -4 -83
-150 -83 -165 0 -7 -4 -13 -9 -13 -7 0 -46 -70 -69 -122 -2 -5 181 -8 407 -8
359 0 411 -2 411 -15 0 -8 -4 -15 -10 -15 -5 0 -10 -6 -10 -14 0 -8 -3 -16 -7
-18 -5 -1 -18 -23 -30 -48 -35 -71 -77 -145 -85 -148 -5 -2 -8 -12 -8 -23 0
-10 -4 -19 -8 -19 -20 0 -44 -116 -58 -280 -26 -297 -42 -420 -55 -420 -5 0
-9 -11 -9 -24 0 -14 -4 -28 -10 -31 -5 -3 -10 -15 -10 -25 0 -21 -71 -183 -82
-188 -10 -5 -10 -132 0 -132 4 0 13 -12 19 -28 22 -49 123 -142 156 -142 9 0
17 -4 17 -9 0 -20 285 -40 303 -22 6 6 32 11 58 11 26 0 51 5 54 10 3 6 15 10
26 10 10 0 27 4 37 8 111 54 132 66 132 73 0 5 7 9 16 9 9 0 24 8 33 18 9 9
32 29 51 44 53 41 82 69 115 113 16 22 35 46 41 53 7 6 16 21 19 32 3 11 11
20 16 20 5 0 9 7 9 15 0 8 5 15 10 15 6 0 10 9 10 20 0 11 4 20 9 20 5 0 14
15 21 33 13 33 29 71 49 120 6 15 11 41 11 57 0 17 5 30 10 30 6 0 10 22 10
49 0 28 4 52 9 55 4 3 11 20 15 37 4 20 30 55 78 103 67 66 113 95 211 135 34
13 189 15 231 2 17 -6 58 -18 91 -27 33 -10 69 -22 79 -28 11 -6 82 -73 157
-148 76 -76 142 -138 146 -138 4 0 38 -29 76 -65 37 -36 70 -65 73 -65 3 0 16
-10 29 -22 13 -13 45 -41 70 -63 25 -22 59 -51 74 -65 16 -14 50 -43 76 -65
26 -22 59 -51 75 -65 15 -14 49 -43 75 -65 26 -22 68 -59 93 -83 26 -24 62
-55 81 -70 19 -15 58 -50 87 -79 29 -29 57 -53 61 -53 4 0 33 -24 63 -52 31
-29 78 -71 105 -93 27 -22 64 -53 81 -70 17 -16 48 -43 69 -60 20 -16 52 -45
70 -62 19 -18 37 -33 40 -33 3 0 21 -15 40 -32 32 -31 93 -86 141 -125 44 -37
170 -150 207 -185 21 -21 42 -38 45 -38 4 0 34 -26 67 -58 34 -31 79 -70 100
-87 22 -16 75 -64 118 -107 62 -62 77 -83 77 -107 0 -16 5 -33 10 -36 6 -3 10
-33 10 -66 0 -33 -4 -59 -10 -59 -5 0 -10 -10 -10 -22 0 -42 -140 -188 -181
-188 -8 0 -20 -5 -26 -11 -12 -12 -193 -14 -202 -2 -3 4 -18 14 -33 22 -15 8
-36 22 -45 31 -10 9 -33 25 -50 35 -18 11 -33 23 -33 27 0 4 -6 8 -13 8 -7 0
-22 8 -33 18 -32 29 -121 92 -131 92 -5 0 -15 9 -23 20 -8 11 -20 20 -26 20
-7 0 -14 3 -16 8 -1 4 -23 21 -48 37 -47 32 -74 52 -95 73 -8 6 -17 12 -22 12
-4 0 -21 11 -37 25 -16 14 -32 25 -35 25 -3 0 -22 14 -41 30 -19 16 -41 30
-47 30 -7 0 -13 4 -13 8 0 4 -12 15 -27 24 -16 9 -37 25 -48 35 -11 10 -32 24
-47 32 -16 8 -28 18 -28 23 0 4 -6 8 -13 8 -7 0 -19 9 -27 20 -8 11 -18 20
-23 20 -9 0 -101 64 -125 87 -7 7 -17 13 -21 13 -4 0 -21 11 -37 25 -16 14
-32 25 -36 25 -4 0 -18 11 -32 25 -14 14 -30 25 -36 25 -6 0 -17 6 -24 13 -7
6 -25 21 -40 32 -16 11 -34 26 -41 32 -8 7 -18 13 -24 13 -6 0 -11 5 -11 10 0
6 -7 10 -15 10 -8 0 -15 5 -15 10 0 6 -5 10 -11 10 -7 0 -19 8 -28 18 -9 10
-40 33 -69 51 -30 19 -59 39 -65 46 -16 14 -75 42 -110 51 -30 7 -104 -12
-122 -31 -58 -62 -45 -166 30 -241 13 -13 27 -24 30 -24 3 0 11 -5 18 -10 47
-39 62 -50 78 -55 11 -4 19 -11 19 -16 0 -5 6 -9 13 -9 7 0 19 -9 27 -20 8
-11 18 -20 23 -20 12 0 107 -68 128 -92 9 -10 23 -18 32 -18 8 0 17 -4 19 -8
2 -4 35 -30 73 -57 39 -27 72 -53 73 -57 2 -5 9 -8 16 -8 6 0 18 -9 26 -20 8
-11 18 -20 23 -20 5 0 23 -11 41 -25 18 -14 36 -25 40 -25 4 0 17 -10 30 -23
12 -13 47 -38 77 -57 30 -19 61 -42 70 -52 9 -10 21 -18 28 -18 6 0 11 -4 11
-10 0 -5 6 -10 13 -10 10 0 28 -13 84 -60 7 -5 16 -10 20 -10 5 0 15 -9 23
-20 8 -11 20 -20 28 -20 7 0 24 -11 38 -25 14 -14 29 -25 33 -25 4 0 22 -13
39 -30 18 -16 38 -30 46 -30 8 0 16 -4 18 -8 2 -4 35 -30 73 -57 39 -27 72
-53 73 -57 2 -5 10 -8 18 -8 8 0 14 -3 14 -7 0 -5 27 -26 60 -48 33 -22 63
-48 66 -57 3 -10 10 -18 15 -18 5 0 9 -7 9 -15 0 -8 5 -15 10 -15 6 0 10 -38
10 -95 0 -57 -4 -95 -10 -95 -5 0 -10 -9 -10 -20 0 -11 -4 -20 -10 -20 -5 0
-10 -6 -10 -14 0 -7 -16 -24 -35 -37 -19 -13 -35 -27 -35 -31 0 -5 -9 -8 -19
-8 -11 0 -23 -5 -26 -10 -8 -13 -132 -13 -140 0 -3 6 -16 10 -27 10 -11 0 -43
16 -69 35 -27 19 -53 35 -57 35 -4 0 -14 9 -22 20 -8 11 -19 20 -25 20 -5 0
-23 11 -39 25 -16 14 -32 25 -35 25 -3 0 -22 14 -41 30 -19 16 -40 30 -47 30
-6 0 -13 4 -15 8 -1 5 -34 30 -73 57 -38 26 -71 52 -73 57 -2 4 -10 8 -17 8
-7 0 -15 3 -17 8 -4 10 -106 82 -116 82 -4 0 -14 9 -22 20 -8 11 -19 20 -25
20 -5 0 -26 14 -45 30 -19 16 -38 30 -41 30 -3 0 -19 11 -35 25 -16 14 -32 25
-36 25 -7 0 -32 18 -62 45 -6 6 -32 24 -58 40 -27 17 -48 33 -48 38 0 4 -7 7
-15 7 -8 0 -15 3 -15 8 0 4 -28 25 -63 47 -34 22 -69 47 -78 57 -9 10 -20 18
-25 18 -5 0 -25 14 -44 30 -19 17 -43 33 -52 36 -10 3 -18 10 -18 15 0 5 -7 9
-15 9 -8 0 -15 5 -15 10 0 6 -7 10 -15 10 -8 0 -15 5 -15 10 0 6 -6 10 -14 10
-8 0 -16 6 -19 13 -2 8 -28 12 -79 12 -73 0 -76 -1 -107 -34 -30 -32 -37 -59
-33 -125 3 -31 37 -86 54 -86 6 0 18 -8 27 -18 21 -24 116 -92 128 -92 5 0 15
-9 23 -20 8 -11 20 -20 27 -20 7 0 13 -3 13 -7 0 -5 27 -26 60 -48 33 -22 60
-43 60 -47 0 -5 6 -8 13 -8 7 0 19 -9 27 -20 8 -11 18 -20 23 -20 10 0 99 -63
131 -92 11 -10 26 -18 33 -18 7 0 13 -3 13 -7 0 -5 21 -21 45 -38 25 -16 45
-33 45 -37 0 -5 7 -8 15 -8 8 0 15 -4 15 -10 0 -5 5 -10 11 -10 6 0 16 -6 24
-12 26 -25 52 -45 83 -64 18 -10 32 -22 32 -26 0 -4 7 -8 15 -8 8 0 15 -4 15
-10 0 -5 7 -10 15 -10 8 0 15 -4 15 -8 0 -4 12 -15 28 -24 15 -9 36 -25 48
-36 11 -11 30 -25 43 -31 12 -7 30 -19 39 -27 9 -8 42 -31 72 -52 67 -47 95
-87 105 -148 23 -157 -93 -304 -241 -304 -30 0 -54 4 -54 9 0 5 -13 11 -29 14
-16 3 -36 13 -44 22 -9 8 -19 15 -24 15 -4 0 -19 10 -33 22 -14 13 -37 29 -52
37 -16 8 -28 18 -28 23 0 4 -5 8 -10 8 -6 0 -16 5 -23 10 -47 39 -62 50 -78
55 -11 4 -19 11 -19 16 0 5 -6 9 -13 9 -7 0 -19 9 -27 20 -8 11 -22 20 -32 20
-10 0 -18 3 -18 8 0 4 -20 21 -45 37 -24 17 -45 33 -45 38 0 4 -7 7 -15 7 -8
0 -29 13 -46 30 -17 16 -40 32 -50 35 -11 4 -19 10 -19 15 0 5 -8 11 -19 15
-10 3 -28 14 -39 23 -25 22 -51 41 -122 88 -30 21 -56 41 -58 46 -2 4 -9 8
-15 8 -7 0 -28 14 -47 30 -19 16 -38 30 -42 30 -4 0 -18 11 -32 25 -14 14 -32
25 -40 25 -8 0 -16 4 -18 8 -1 5 -27 25 -57 45 -88 61 -154 50 -206 -34 -52
-81 -19 -157 98 -227 15 -9 27 -20 27 -24 0 -4 5 -8 10 -8 6 0 22 -11 36 -25
14 -14 28 -25 32 -25 4 0 23 -14 42 -30 19 -16 39 -30 43 -30 4 0 19 -11 33
-25 14 -14 29 -25 33 -25 4 0 22 -13 39 -30 18 -16 37 -30 42 -30 6 0 21 -10
34 -22 12 -13 39 -34 59 -48 20 -14 37 -28 37 -32 0 -5 7 -8 15 -8 8 0 15 -4
15 -8 0 -4 12 -15 28 -24 27 -17 50 -34 100 -75 15 -13 30 -23 35 -23 14 0 7
-51 -12 -88 -22 -43 -54 -82 -68 -82 -5 0 -18 -8 -29 -19 -11 -10 -43 -24 -71
-31 -63 -16 -181 0 -223 30 -16 11 -33 20 -39 20 -6 0 -11 5 -11 10 0 6 -7 10
-16 10 -9 0 -25 10 -35 21 -17 19 -17 24 -4 50 41 79 1 230 -86 320 -53 55
-131 109 -156 109 -11 0 -24 5 -31 12 -6 6 -45 11 -94 11 -67 0 -91 -5 -122
-22 -21 -12 -40 -20 -42 -18 -2 2 3 20 11 40 8 20 15 62 15 94 0 60 -27 173
-41 173 -5 0 -9 7 -9 15 0 16 -14 36 -79 107 -24 26 -49 48 -55 48 -6 0 -18 9
-26 20 -8 11 -22 20 -32 20 -10 0 -18 4 -18 9 0 17 -116 45 -195 45 -69 1 -88
-3 -138 -28 -32 -15 -61 -26 -64 -22 -3 3 0 20 8 38 24 57 9 231 -22 258 -3 3
-11 20 -18 38 -8 17 -17 32 -22 32 -5 0 -9 5 -9 11 0 6 -6 16 -12 23 -7 7 -24
27 -38 44 -14 18 -29 32 -35 32 -5 0 -23 11 -39 25 -16 14 -44 30 -62 37 -19
7 -34 16 -34 20 0 4 -13 8 -29 8 -17 0 -33 4 -36 10 -3 6 -48 10 -101 10 -56
0 -94 -4 -94 -10 0 -5 -10 -10 -22 -10 -13 0 -32 -7 -42 -15 -11 -8 -27 -15
-35 -15 -9 0 -12 3 -6 8 23 16 59 99 71 162 10 54 10 77 -1 126 -17 80 -38
144 -47 144 -5 0 -8 6 -8 13 0 11 -13 29 -61 84 -44 50 -164 123 -204 123 -13
0 -27 5 -30 10 -3 6 -46 10 -95 10 -49 0 -92 -4 -95 -10 -3 -5 -17 -10 -31
-10 -13 0 -24 -4 -24 -10 0 -5 -7 -10 -15 -10 -9 0 -27 -7 -40 -16 -22 -14
-26 -14 -40 -1 -8 9 -15 18 -15 22 0 3 -25 31 -55 61 -30 30 -65 70 -77 87
-12 18 -28 36 -35 40 -7 4 -27 28 -44 53 -17 25 -53 69 -80 97 -27 28 -49 55
-49 59 0 4 -11 18 -25 32 -14 14 -25 28 -25 31 0 4 -6 13 -14 20 -17 17 -36 1
-36 -32 0 -13 -4 -23 -10 -23 -5 0 -10 -9 -10 -19 0 -11 -4 -23 -10 -26 -5 -3
-10 -17 -10 -31 0 -13 -4 -24 -10 -24 -5 0 -10 -11 -10 -25 0 -14 -4 -25 -10
-25 -5 0 -10 -11 -10 -24 0 -14 -4 -27 -9 -30 -24 -15 -21 -57 6 -94 16 -20
31 -38 36 -40 4 -2 7 -8 7 -13 0 -6 11 -21 25 -35 14 -14 25 -28 25 -32 0 -4
17 -25 38 -47 20 -22 49 -56 64 -75 14 -19 41 -51 60 -72 83 -91 84 -99 31
-155 -21 -21 -51 -56 -68 -78 -16 -22 -39 -49 -50 -61 -11 -11 -29 -33 -40
-48 -11 -16 -30 -39 -42 -52 -13 -13 -23 -28 -23 -34 0 -5 -4 -10 -10 -10 -5
0 -10 -7 -10 -15 0 -8 -4 -15 -10 -15 -5 0 -10 -11 -10 -24 0 -13 -5 -26 -12
-28 -29 -10 -6 -298 24 -298 4 0 8 -8 8 -17 0 -10 10 -31 23 -46 54 -69 80
-97 91 -97 6 0 18 -9 26 -20 8 -11 20 -20 27 -20 7 0 13 -4 13 -10 0 -5 8 -10
18 -10 10 0 22 -4 28 -9 18 -17 123 -41 181 -41 68 0 203 42 203 62 0 5 7 8
15 8 8 0 15 5 15 10 0 6 7 10 15 10 8 0 15 5 15 12 0 6 3 9 6 6 3 -4 -2 -21
-11 -39 -19 -36 -24 -202 -7 -236 5 -10 16 -33 25 -51 9 -19 17 -39 17 -46 0
-6 9 -18 20 -26 11 -8 20 -18 20 -23 0 -8 58 -67 97 -97 69 -54 175 -89 271
-90 91 0 159 21 207 66 21 19 39 34 40 34 6 0 -9 -51 -16 -56 -23 -14 -3 -213
24 -240 4 -4 7 -16 7 -26 0 -10 4 -18 9 -18 5 0 13 -10 17 -22 8 -28 130 -148
149 -148 7 0 15 -4 17 -8 1 -4 28 -19 58 -32 40 -17 79 -25 147 -28 82 -4 97
-2 148 22 35 16 75 46 106 78 l49 53 0 -77 c0 -42 5 -80 10 -83 6 -3 10 -17
10 -31 0 -13 5 -24 10 -24 6 0 10 -7 10 -15 0 -49 190 -205 250 -205 10 0 22
-4 25 -10 8 -12 145 -13 145 -1 0 5 13 11 29 14 30 6 56 29 103 88 47 61 65
79 77 79 12 0 100 -56 111 -70 8 -11 160 -80 175 -80 8 0 17 -4 20 -10 3 -5
21 -10 40 -10 19 0 37 -4 40 -10 3 -5 44 -10 90 -10 46 0 87 5 90 10 3 6 17
10 31 10 13 0 32 4 42 9 9 5 34 17 55 26 45 20 61 31 137 103 31 28 65 68 76
87 10 19 22 35 26 35 5 0 8 4 8 10 0 5 8 19 17 29 16 20 17 20 70 -9 30 -17
61 -30 69 -30 8 0 14 -4 14 -10 0 -5 9 -10 20 -10 11 0 20 -4 20 -9 0 -5 12
-11 28 -14 15 -3 47 -11 72 -17 80 -20 151 -23 221 -10 38 7 69 17 69 22 0 4
11 8 25 8 14 0 25 4 25 9 0 5 10 13 22 17 54 17 218 219 218 270 0 7 5 14 10
14 6 0 10 9 10 19 0 11 5 23 10 26 6 3 10 14 10 24 0 9 6 29 13 44 12 26 15
27 97 28 76 0 109 4 213 26 15 3 27 9 27 14 0 5 11 9 25 9 14 0 25 3 25 8 0 4
14 13 30 21 42 18 160 137 160 161 0 5 5 10 10 10 6 0 10 9 10 20 0 11 4 20 9
20 5 0 11 12 14 27 29 141 36 184 36 226 1 45 2 47 29 47 15 0 72 9 127 21 55
11 112 23 128 26 15 3 27 9 27 14 0 5 9 9 20 9 11 0 20 5 20 10 0 6 4 10 10
10 28 0 170 148 170 178 0 6 5 12 10 12 6 0 10 7 10 15 0 8 5 15 10 15 6 0 10
8 10 18 0 10 3 22 7 26 33 33 54 231 33 326 -6 30 -14 67 -17 83 -3 15 -9 27
-14 27 -5 0 -9 11 -9 25 0 14 -4 25 -10 25 -5 0 -10 9 -10 20 0 11 -4 20 -10
20 -5 0 -10 5 -10 11 0 12 -70 112 -82 117 -12 5 -10 62 2 62 6 0 10 6 10 14
0 13 27 78 84 201 13 28 33 72 45 98 l21 48 -60 127 c-33 70 -67 140 -75 155
-8 16 -15 35 -15 43 0 8 -4 14 -10 14 -5 0 -10 9 -10 20 0 11 -4 20 -10 20 -5
0 -10 9 -10 20 0 11 -4 20 -10 20 -5 0 -10 4 -10 9 0 9 -33 83 -94 211 -11 25
-24 47 -28 48 -5 2 -8 10 -8 17 0 8 -11 35 -25 61 -14 26 -25 53 -25 60 0 8
-4 14 -10 14 -5 0 -10 9 -10 20 0 11 -4 20 -10 20 -5 0 -10 5 -10 12 0 6 -24
61 -54 122 -29 61 -59 126 -67 144 -8 17 -17 32 -21 32 -5 0 -8 7 -8 15 0 18
-52 129 -62 133 -5 2 -8 12 -8 22 0 10 -4 22 -10 25 -5 3 -10 15 -10 26 0 10
-4 19 -10 19 -5 0 -10 9 -10 20 0 11 -4 20 -10 20 -5 0 -10 9 -10 19 0 11 -3
21 -7 23 -11 4 -43 75 -43 93 0 8 -4 15 -10 15 -5 0 -10 9 -10 20 0 11 -3 20
-8 20 -4 0 -13 15 -21 33 -8 17 -34 72 -58 122 -23 49 -43 95 -43 102 0 7 -4
13 -10 13 -5 0 -10 9 -10 20 0 11 -4 20 -10 20 -5 0 -10 9 -10 20 0 11 -4 20
-10 20 -5 0 -10 5 -10 10 0 6 -11 33 -25 62 -14 28 -25 58 -25 65 0 7 -4 13
-10 13 -5 0 -10 9 -10 20 0 11 -4 20 -10 20 -5 0 -10 5 -10 12 0 7 -10 34 -22
60 l-23 48 -107 0 c-60 0 -110 4 -113 10 -3 6 -43 10 -89 10 -45 0 -86 4 -91
9 -6 5 -28 11 -50 14 -22 3 -58 10 -80 16 -22 6 -69 17 -105 25 -36 8 -83 20
-105 26 -22 7 -55 14 -73 17 -18 3 -35 9 -38 14 -3 5 -18 9 -34 9 -16 0 -32 5
-35 10 -3 6 -17 10 -31 10 -13 0 -32 4 -42 9 -22 12 -155 45 -252 62 -176 32
-502 50 -515 30z"/>
</g>
</svg>
